<?xml version="1.0" encoding="UTF-8"?>
<svg id="Layer_1" data-name="Layer 1" xmlns="http://www.w3.org/2000/svg" viewBox="0 0 900 900">
  <defs>
    <style>
      .cls-1 {
        stroke-width: 0px;
      }
    </style>
  </defs>
  <path class="cls-1" d="M768.79,541.4l19.66,19.66,20.41-76.18-76.18,20.41,19.67,19.67-46.79,46.78-75.53-75.53c28.62-22.66,52.21-51.37,68.83-84.23h42.53v-244.19h-31.95c0-23.77-7.03-46.39-19.63-66.9,65.19-32.47,103.55-40.54,101.96-54.01-2.53-21.47-106.63-57.8-197.57-23.18C558.85,8.67,517.57,0,473.49,0c-116.8,0-214,60.69-232.66,140.04-100.76,28.91-161.1,136.24-147.88,154.94,7.85,11.11,41.98-8.71,112.64-28.23v145.24h42.53c16.63,32.86,40.21,61.57,68.83,84.23l-173.86,173.86,229.94,229.94v-331.55h36.3v44.45h-.89v137.21h49.05v-137.21h32.01v137.21h49.05v-181.66h35.41v331.55l229.94-229.94-81.88-81.88,46.79-46.78ZM676.11,107.87c11.45,18.4,17.81,38.65,17.81,59.92h-4.2c-10.39-17.19-22.78-33.04-36.83-47.23,7.58-4.29,15.27-8.53,23.22-12.69ZM344.68,375.23c-40.59,0-73.49-32.9-73.49-73.49s32.9-73.49,73.49-73.49,73.49,32.9,73.49,73.49-32.9,73.49-73.49,73.49ZM282.55,133.07c-8.43.41-16.63,1.43-24.63,2.93,21.22-68.76,109.8-120.49,215.57-120.49,36.38,0,70.7,6.16,100.97,16.98-11.37,5.85-22.4,12.9-32.82,21.49-.32.26-.61.56-.93.82-21.41-5.9-43.94-9.12-67.23-9.12-76.3,0-144.63,33.89-190.93,87.38ZM550.35,375.23c-40.59,0-73.49-32.9-73.49-73.49s32.9-73.49,73.49-73.49,73.49,32.9,73.49,73.49-32.9,73.49-73.49,73.49Z"/>
</svg>