<?xml version="1.0" encoding="UTF-8"?>
<svg id="_레이어_1" data-name="레이어 1" xmlns="http://www.w3.org/2000/svg" viewBox="0 0 226.8 226.8">
  <defs>
    <style>
      .cls-1, .cls-2 {
        stroke-width: 0px;
      }

      .cls-2 {
        fill: #fff;
      }
    </style>
  </defs>
  <rect class="cls-2" x="58.3" y="82.5" width="42.5" height="61.8"/>
  <rect class="cls-2" x="125.9" y="82.5" width="42.5" height="61.8"/>
  <path class="cls-1" d="M79.6,82.5c-8.4-9.2-20.4-14.9-33.8-14.9C20.5,67.6,0,88.1,0,113.4s20.5,45.8,45.8,45.8c13.4,0,25.4-5.7,33.8-14.9-7.5-8.2-12-19-12-30.9s4.5-22.8,12-30.9Z"/>
  <path class="cls-1" d="M181,67.6c-13.4,0-25.4,5.7-33.8,14.9,7.5,8.2,12,19,12,30.9s-4.6,22.8-12,30.9c8.4,9.1,20.4,14.9,33.8,14.9,25.3,0,45.8-20.5,45.8-45.8s-20.5-45.8-45.8-45.8Z"/>
  <path class="cls-1" d="M135.2,113.4v-.3c.1-11.8,4.6-22.6,12-30.6-8.4-9.2-20.4-14.9-33.8-14.9s-25.4,5.7-33.8,14.9c7.5,8.2,12,19,12,30.9s-4.6,22.8-12,30.9c8.4,9.1,20.4,14.9,33.8,14.9s25.4-5.7,33.8-14.9c-7.4-8.1-11.9-18.8-12-30.6v-.3Z"/>
</svg>