# Blender 3.6.1
# www.blender.org
mtllib diamond.mtl
o Diamond
v 0.019769 9.024876 0.087236
v -4.164394 9.024876 1.436111
v -6.553013 8.076981 -0.445282
v -3.892680 9.024876 -1.917615
v -0.512749 8.076982 6.660018
v -3.989934 6.268584 7.912134
v -5.004437 8.076981 4.358348
v -1.985083 9.024876 3.999685
v 1.368644 9.024876 4.271399
v 5.043975 8.076981 -4.183875
v 8.388095 6.268583 -2.610513
v 6.592551 8.076981 0.619755
v 4.203932 9.024876 -1.261639
v 6.592551 8.076981 0.619755
v 7.844666 6.268583 4.096940
v 4.290880 8.076982 5.111443
v 3.932218 9.024876 2.092088
v -3.892680 9.024876 -1.917615
v -4.251343 8.076980 -4.936969
v -1.329106 9.024876 -4.096927
v -1.329106 9.024876 -4.096927
v 1.368644 9.024876 4.271399
v -0.512749 8.076982 6.660018
v -1.985083 9.024876 3.999685
v -1.985083 9.024876 3.999685
v -5.004437 8.076981 4.358348
v -4.164394 9.024876 1.436111
v 3.932218 9.024876 2.092088
v 4.290880 8.076982 5.111443
v 1.368644 9.024876 4.271399
v -1.329106 9.024876 -4.096927
v -4.251343 8.076980 -4.936969
v -2.677980 6.268581 -8.281090
v 0.552287 8.076979 -6.485546
v 4.203932 9.024876 -1.261639
v 6.592551 8.076981 0.619755
v 3.932218 9.024876 2.092088
v 5.043975 8.076981 -4.183875
v 4.029472 6.268581 -7.737660
v 8.388095 6.268583 -2.610513
v 6.592551 8.076981 0.619755
v 8.388095 6.268583 -2.610513
v 7.844666 6.268583 4.096940
v 4.290880 8.076982 5.111443
v 7.844666 6.268583 4.096940
v 2.717519 6.268584 8.455564
v -0.512749 8.076982 6.660018
v 2.717519 6.268584 8.455564
v -3.989934 6.268584 7.912134
v -1.329106 9.024876 -4.096927
v 0.552287 8.076979 -6.485546
v 2.024621 9.024876 -3.825212
v -5.004437 8.076981 4.358348
v -3.989934 6.268584 7.912134
v -8.348557 6.268583 2.784986
v -6.553013 8.076981 -0.445282
v -8.348557 6.268583 2.784986
v -7.805128 6.268582 -3.922466
v 2.024621 9.024876 -3.825212
v 5.043975 8.076981 -4.183875
v 4.203932 9.024876 -1.261639
v -4.251343 8.076980 -4.936969
v -7.805128 6.268582 -3.922466
v -2.677980 6.268581 -8.281090
v 0.552287 8.076979 -6.485546
v -2.677980 6.268581 -8.281090
v 4.029472 6.268581 -7.737660
v 2.024621 9.024876 -3.825212
v 0.552287 8.076979 -6.485546
v 4.029472 6.268581 -7.737660
v 5.043975 8.076981 -4.183875
v -5.004437 8.076981 4.358348
v -8.348557 6.268583 2.784986
v -6.553013 8.076981 -0.445282
v -4.164394 9.024876 1.436111
v -3.892680 9.024876 -1.917615
v -6.553013 8.076981 -0.445282
v -7.805128 6.268582 -3.922466
v -4.251343 8.076980 -4.936969
v 4.290880 8.076982 5.111443
v 2.717519 6.268584 8.455564
v -0.512749 8.076982 6.660018
v 1.368644 9.024876 4.271399
v 0.019769 9.024876 0.087236
v -4.164394 9.024876 1.436111
v -3.892680 9.024876 -1.917615
v 0.019769 9.024876 0.087236
v -3.892680 9.024876 -1.917615
v -1.329106 9.024876 -4.096927
v 1.368644 9.024876 4.271399
v -1.985083 9.024876 3.999685
v 0.019769 9.024876 0.087236
v 3.932218 9.024876 2.092088
v 1.368644 9.024876 4.271399
v 0.019769 9.024876 0.087236
v 0.019769 9.024876 0.087236
v -1.985083 9.024876 3.999685
v -4.164394 9.024876 1.436111
v 0.019769 9.024876 0.087236
v 2.024621 9.024876 -3.825212
v 4.203932 9.024876 -1.261639
v 0.019769 9.024876 0.087236
v 4.203932 9.024876 -1.261639
v 3.932218 9.024876 2.092088
v 0.019769 9.024876 0.087236
v -1.329106 9.024876 -4.096927
v 2.024621 9.024876 -3.825212
v -8.351103 6.268583 2.769944
v -3.332607 1.673779 2.931209
v -4.000417 6.268584 7.899529
v 4.051229 6.268581 -7.724049
v 0.388585 1.673778 -4.289466
v -2.654949 6.268581 -8.282988
v -2.816214 1.673779 -3.264491
v 0.023440 -2.686791 0.091556
v -4.357582 1.673779 -0.273589
v -7.792163 6.268582 -3.936234
v 7.839043 6.268583 4.119344
v 4.404462 1.673779 0.456701
v 8.397983 6.268583 -2.586834
v 0.388585 1.673778 -4.289466
v 4.051229 6.268581 -7.724049
v 3.379487 1.673779 -2.748099
v 0.023440 -2.686791 0.091556
v 8.397983 6.268583 -2.586834
v 3.379487 1.673779 -2.748099
v 4.051229 6.268581 -7.724049
v 2.701829 6.268584 8.466098
v 2.863094 1.673780 3.447603
v 7.839043 6.268583 4.119344
v 4.404462 1.673779 0.456701
v 0.023440 -2.686791 0.091556
v 3.379487 1.673779 -2.748099
v 8.397983 6.268583 -2.586834
v -8.351103 6.268583 2.769944
v -4.357582 1.673779 -0.273589
v 0.023440 -2.686791 0.091556
v -3.332607 1.673779 2.931209
v 4.404462 1.673779 0.456701
v 7.839043 6.268583 4.119344
v 2.863094 1.673780 3.447603
v 0.023440 -2.686791 0.091556
v 0.023440 -2.686791 0.091556
v -2.816214 1.673779 -3.264491
v -2.654949 6.268581 -8.282988
v 0.388585 1.673778 -4.289466
v -7.792163 6.268582 -3.936234
v -4.357582 1.673779 -0.273589
v -8.351103 6.268583 2.769944
v -2.654949 6.268581 -8.282988
v -2.816214 1.673779 -3.264491
v -7.792163 6.268582 -3.936234
v -4.000417 6.268584 7.899529
v -0.341705 1.673780 4.472578
v 2.701829 6.268584 8.466098
v 2.701829 6.268584 8.466098
v -0.341705 1.673780 4.472578
v 0.023440 -2.686791 0.091556
v 2.863094 1.673780 3.447603
v -3.332607 1.673779 2.931209
v 0.023440 -2.686791 0.091556
v -0.341705 1.673780 4.472578
v -4.000417 6.268584 7.899529
v -8.349456 6.267076 2.769997
v -8.349675 6.268583 2.771628
vn -0.3494 0.9366 -0.0283
vn -0.2422 0.8472 0.4727
vn 0.5056 0.8472 -0.1630
vn 0.4727 0.8472 0.2422
vn -0.2270 0.9366 -0.2671
vn -0.0283 0.9366 0.3494
vn -0.2671 0.9366 0.2270
vn 0.2270 0.9366 0.2671
vn -0.1630 0.8472 -0.5056
vn 0.3494 0.9366 0.0283
vn 0.5818 0.6456 -0.4946
vn 0.7612 0.6456 0.0617
vn 0.4946 0.6456 0.5818
vn -0.0617 0.6456 0.7612
vn 0.0283 0.9366 -0.3494
vn -0.5818 0.6456 0.4946
vn -0.7612 0.6456 -0.0617
vn 0.2671 0.9366 -0.2270
vn -0.4946 0.6456 -0.5818
vn 0.0617 0.6456 -0.7612
vn 0.5925 0.6295 -0.5026
vn 0.2422 0.8472 -0.4727
vn -0.5056 0.8472 0.1630
vn 0.3270 0.7002 -0.6346
vn -0.2174 0.7006 -0.6797
vn -0.4727 0.8472 -0.2422
vn 0.1630 0.8472 0.5056
vn -0.0000 -0.2425 0.9701
vn 0.0654 0.6295 -0.7742
vn -0.0000 1.0000 -0.0000
vn 0.5923 0.6300 -0.5023
vn -0.0645 0.6299 0.7740
vn 0.6343 0.7006 0.3269
vn -0.7740 0.6299 -0.0645
vn -0.3269 0.7006 0.6343
vn -0.5929 0.6299 0.5017
vn -0.5017 0.6299 -0.5929
vn -0.6797 0.7006 0.2174
vn 0.6797 0.7006 -0.2174
vn -0.6343 0.7006 -0.3269
vn 0.2174 0.7006 0.6797
vn 0.7740 0.6299 0.0645
vn 0.5017 0.6299 0.5929
vt 0.269030 0.404329
vt 0.234835 0.234835
vt 0.404329 0.269030
vt 0.595671 0.269030
vt 0.500000 0.125000
vt 0.691342 0.038060
vt 0.765165 0.234835
vt 0.595671 0.730970
vt 0.765165 0.765165
vt 0.691342 0.961940
vt 0.500000 0.875000
vt 0.730970 0.595671
vt 0.875000 0.500000
vt 0.961940 0.691342
vt 0.269030 0.595671
vt 0.125000 0.500000
vt 0.730970 0.404329
vt 0.234835 0.765165
vt 0.038060 0.691342
vt 0.308658 0.500000
vt 0.691342 0.500000
vt 0.500000 0.602838
vt 0.961940 0.308658
vt 0.404329 0.730970
vt 0.038060 0.308658
vt 0.308658 0.038060
vt 0.308658 0.961940
vt 0.691962 0.500000
vt 0.309591 0.500000
vt 0.500256 0.238707
vt 0.692024 0.499914
vt 0.690409 0.038070
vt 0.676690 0.322815
vt 0.500322 0.500000
vt 0.499744 0.250001
vt 0.750322 0.499422
vt 0.961818 0.307590
vt 0.500000 0.500000
vt 0.692087 0.500000
vt 0.038826 0.692410
vt 0.323955 0.677185
vt 0.310049 0.962381
vt 0.037941 0.309727
vt 0.323137 0.323633
vt 0.250323 0.500578
vt 0.692732 0.961496
vt 0.677507 0.676367
vt 0.962703 0.690273
vt 0.500900 0.749999
vt 0.310049 0.500000
vt 0.500900 0.238707
vt 0.692732 0.500000
vt 0.309727 0.500000
vt 0.500578 0.238707
vt 0.692410 0.500000
vt 0.307913 0.038504
s 0
usemtl Stone_-_Diamond
f 4/1/1 3/2/1 2/3/1
f 8/4/2 7/5/2 6/6/2 5/7/2
f 13/8/3 12/9/3 11/10/3 10/11/3
f 17/12/4 16/13/4 15/14/4 14/9/4
f 20/15/5 19/16/5 18/1/5
f 24/4/6 23/7/6 22/17/6
f 27/3/7 26/5/7 25/4/7
f 30/17/8 29/13/8 28/12/8
f 34/18/9 33/19/9 32/16/9 31/15/9
f 37/12/10 36/9/10 35/8/10
f 40/20/11 39/21/11 38/22/11
f 43/14/12 42/10/12 41/9/12
f 46/20/13 45/21/13 44/22/13
f 49/6/14 48/23/14 47/7/14
f 52/24/15 51/18/15 50/15/15
f 55/20/16 54/21/16 53/22/16
f 58/25/17 57/26/17 56/2/17
f 61/8/18 60/11/18 59/24/18
f 64/20/19 63/21/19 62/22/19
f 67/27/20 66/19/20 65/18/20
f 165/28/21 110/29/21 109/30/21 164/31/21
f 71/11/22 70/27/22 69/18/22 68/24/22
f 75/3/23 74/2/23 73/26/23 72/5/23
f 163/32/24 162/33/24 161/34/24 160/35/24
f 159/36/25 158/34/25 157/33/25 156/37/25
f 79/16/26 78/25/26 77/2/26 76/1/26
f 83/17/27 82/7/27 81/23/27 80/13/27
f 9/17/28 1/38/28 21/15/28
f 155/37/29 154/33/29 153/32/29
f 86/1/30 85/3/30 84/38/30
f 89/15/30 88/1/30 87/38/30
f 92/38/30 91/4/30 90/17/30
f 95/38/30 94/17/30 93/12/30
f 98/3/30 97/4/30 96/38/30
f 101/8/30 100/24/30 99/38/30
f 104/12/30 103/8/30 102/38/30
f 107/24/30 106/15/30 105/38/30
f 165/28/31 164/31/31 108/39/31
f 113/40/32 112/41/32 111/42/32
f 117/43/33 116/44/33 115/34/33 114/45/33
f 120/46/34 119/47/34 118/48/34
f 124/34/35 123/49/35 122/42/35 121/41/35
f 127/50/36 126/51/36 125/52/36
f 130/53/37 129/54/37 128/55/37
f 134/46/38 133/49/38 132/34/38 131/47/38
f 138/35/39 137/34/39 136/44/39 135/56/39
f 142/34/40 141/36/40 140/48/40 139/47/40
f 146/41/41 145/40/41 144/45/41 143/34/41
f 149/56/42 148/44/42 147/43/42
f 152/53/43 151/54/43 150/55/43
